<?xml version="1.0" encoding="UTF-8" standalone="no"?>
<!-- Created with Inkscape (http://www.inkscape.org/) -->

<svg
   version="1.1"
   id="svg2691"
   xml:space="preserve"
   width="682.66669"
   height="682.66669"
   viewBox="0 0 682.66669 682.66669"
   xmlns="http://www.w3.org/2000/svg"
   xmlns:svg="http://www.w3.org/2000/svg"><defs
     id="defs2695"><clipPath
       clipPathUnits="userSpaceOnUse"
       id="clipPath2717"><path
         d="M 0,512 H 512 V 0 H 0 Z"
         id="path2715" /></clipPath><clipPath
       clipPathUnits="userSpaceOnUse"
       id="clipPath2729"><path
         d="M 0,512 H 512 V 0 H 0 Z"
         id="path2727" /></clipPath></defs><g
     id="g2697"
     transform="matrix(1.3333333,0,0,-1.3333333,0,682.66667)"><path
       d="M 136,270 H 64 v 40 h 72 z"
       style="fill:#ffffff;fill-opacity:1;fill-rule:nonzero;stroke:none"
       id="path2699" /><path
       d="M 136,58 H 64 v 40 h 72 z"
       style="fill:#ffffff;fill-opacity:1;fill-rule:nonzero;stroke:none"
       id="path2701" /><path
       d="M 124,100.5 H 76 V 270 h 48 z"
       style="fill:#d6e7e7;fill-opacity:1;fill-rule:nonzero;stroke:none"
       id="path2703" /><path
       d="M 482,310 H 30 v 48 h 452 z"
       style="fill:#d6e7e7;fill-opacity:1;fill-rule:nonzero;stroke:none"
       id="path2705" /><g
       id="g2707"
       transform="translate(56,358)"><path
         d="M 0,0 200,144 400,0 Z"
         style="fill:#9fbecf;fill-opacity:1;fill-rule:nonzero;stroke:none"
         id="path2709" /></g><g
       id="g2711"><g
         id="g2713"
         clip-path="url(#clipPath2717)"><path
           d="M 482,310 H 30 v 48 h 452 z"
           style="fill:none;stroke:#7caabf;stroke-width:20;stroke-linecap:round;stroke-linejoin:round;stroke-miterlimit:10;stroke-dasharray:none;stroke-opacity:1"
           id="path2719" /></g></g><path
       d="M 482,10 H 30 v 48 h 452 z"
       style="fill:#d6e7e7;fill-opacity:1;fill-rule:nonzero;stroke:none"
       id="path2721" /><g
       id="g2723"><g
         id="g2725"
         clip-path="url(#clipPath2729)"><path
           d="M 482,10 H 30 v 48 h 452 z"
           style="fill:none;stroke:#7caabf;stroke-width:20;stroke-linecap:round;stroke-linejoin:round;stroke-miterlimit:10;stroke-dasharray:none;stroke-opacity:1"
           id="path2731" /><g
           id="g2733"
           transform="translate(56,358)"><path
             d="M 0,0 200,144 400,0"
             style="fill:none;stroke:#7caabf;stroke-width:20;stroke-linecap:round;stroke-linejoin:round;stroke-miterlimit:10;stroke-dasharray:none;stroke-opacity:1"
             id="path2735" /></g><g
           id="g2737"
           transform="translate(280.127,421)"><path
             d="m 0,0 c 0,13.255 -10.745,24 -24,24 -13.255,0 -24,-10.745 -24,-24 0,-13.255 10.745,-24 24,-24 13.255,0 24,10.745 24,24"
             style="fill:#ffffff;fill-opacity:1;fill-rule:nonzero;stroke:none"
             id="path2739" /></g><path
           d="M 136,270 H 64 v 40 h 72 z"
           style="fill:none;stroke:#7caabf;stroke-width:20;stroke-linecap:round;stroke-linejoin:round;stroke-miterlimit:10;stroke-dasharray:none;stroke-opacity:1"
           id="path2741" /><path
           d="M 136,58 H 64 v 40 h 72 z"
           style="fill:none;stroke:#7caabf;stroke-width:20;stroke-linecap:round;stroke-linejoin:round;stroke-miterlimit:10;stroke-dasharray:none;stroke-opacity:1"
           id="path2743" /><path
           d="M 124,100.5 H 76 V 270 h 48 z"
           style="fill:none;stroke:#7caabf;stroke-width:20;stroke-linecap:round;stroke-linejoin:round;stroke-miterlimit:10;stroke-dasharray:none;stroke-opacity:1"
           id="path2745" /><path
           d="m 448.254,270 h -72 v 40 h 72 z"
           style="fill:#ffffff;fill-opacity:1;fill-rule:nonzero;stroke:none"
           id="path2747" /><path
           d="m 448.254,58 h -72 v 40 h 72 z"
           style="fill:#ffffff;fill-opacity:1;fill-rule:nonzero;stroke:none"
           id="path2749" /><path
           d="m 436.254,100.5 h -48 V 270 h 48 z"
           style="fill:#d6e7e7;fill-opacity:1;fill-rule:nonzero;stroke:none"
           id="path2751" /><path
           d="m 448.254,270 h -72 v 40 h 72 z"
           style="fill:none;stroke:#7caabf;stroke-width:20;stroke-linecap:round;stroke-linejoin:round;stroke-miterlimit:10;stroke-dasharray:none;stroke-opacity:1"
           id="path2753" /><path
           d="m 448.254,58 h -72 v 40 h 72 z"
           style="fill:none;stroke:#7caabf;stroke-width:20;stroke-linecap:round;stroke-linejoin:round;stroke-miterlimit:10;stroke-dasharray:none;stroke-opacity:1"
           id="path2755" /><path
           d="m 436.254,100.5 h -48 V 270 h 48 z"
           style="fill:none;stroke:#7caabf;stroke-width:20;stroke-linecap:round;stroke-linejoin:round;stroke-miterlimit:10;stroke-dasharray:none;stroke-opacity:1"
           id="path2757" /><g
           id="g2759"
           transform="translate(282.5215,244.0473)"><path
             d="m 0,0 c 0,0 -17.427,13.203 -38.361,6.913 -21.369,-6.419 -26.67,-35.666 -12.152,-47.053 8.336,-6.538 20.879,-11.914 37.784,-17.89 37.834,-13.373 23.848,-66.73 -14.638,-66.986 -15.018,-0.1 -22.04,0.853 -35.233,9.484"
             style="fill:none;stroke:#7caabf;stroke-width:20;stroke-linecap:round;stroke-linejoin:round;stroke-miterlimit:10;stroke-dasharray:none;stroke-opacity:1"
             id="path2761" /></g><g
           id="g2763"
           transform="translate(256,270.9449)"><path
             d="M 0,0 V -171.39"
             style="fill:none;stroke:#7caabf;stroke-width:20;stroke-linecap:round;stroke-linejoin:round;stroke-miterlimit:10;stroke-dasharray:none;stroke-opacity:1"
             id="path2765" /></g></g></g></g></svg>
