<svg xmlns="http://www.w3.org/2000/svg" version="1.1" xmlns:xlink="http://www.w3.org/1999/xlink" xmlns:svgjs="http://svgjs.com/svgjs" width="512" height="512" x="0" y="0" viewBox="0 0 682.667 682.667" style="enable-background:new 0 0 512 512" xml:space="preserve" class=""><g><defs><clipPath id="a" clipPathUnits="userSpaceOnUse"><path d="M0 512h512V0H0Z" fill="#000000" data-original="#000000"></path></clipPath></defs><g clip-path="url(#a)" transform="matrix(1.33333 0 0 -1.33333 0 682.667)"><path d="M0 0h351.374c17.673 0 32 14.327 32 32v316c0 17.673-14.327 32-32 32H0c-17.673 0-32-14.327-32-32V32C-32 14.327-17.673 0 0 0" style="fill-opacity:1;fill-rule:nonzero;stroke:none" transform="translate(118.626 82)" fill="#ffffff" data-original="#ffffff"></path><path d="M0 0h351.374c17.673 0 32-14.327 32-32v-70H-32v70C-32-14.327-17.673 0 0 0" style="fill-opacity:1;fill-rule:nonzero;stroke:none" transform="translate(118.626 462)" fill="#ffc89f" data-original="#ff9fb3" class=""></path><path d="M0 0h-151" style="stroke-width:20;stroke-linecap:round;stroke-linejoin:round;stroke-miterlimit:10;stroke-dasharray:none;stroke-opacity:1" transform="translate(370.335 462)" fill="none" stroke="#ff9b5d" stroke-width="20" stroke-linecap="round" stroke-linejoin="round" stroke-miterlimit="10" stroke-dasharray="none" stroke-opacity="" data-original="#ff5d7f"></path><path d="M0 0h241.731c17.673 0 32 14.327 32 32v316c0 17.673-14.327 32-32 32h-50" style="stroke-width:20;stroke-linecap:round;stroke-linejoin:round;stroke-miterlimit:10;stroke-dasharray:none;stroke-opacity:1" transform="translate(228.27 82)" fill="none" stroke="#ff9b5d" stroke-width="20" stroke-linecap="round" stroke-linejoin="round" stroke-miterlimit="10" stroke-dasharray="none" stroke-opacity="" data-original="#ff5d7f"></path><path d="M0 0h-51.041c-17.674 0-32-14.327-32-32v-199.5" style="stroke-width:20;stroke-linecap:round;stroke-linejoin:round;stroke-miterlimit:10;stroke-dasharray:none;stroke-opacity:1" transform="translate(169.667 462)" fill="none" stroke="#ff9b5d" stroke-width="20" stroke-linecap="round" stroke-linejoin="round" stroke-miterlimit="10" stroke-dasharray="none" stroke-opacity="" data-original="#ff5d7f"></path><path d="M0 0c0 61.856-50.144 112-112 112S-224 61.856-224 0s50.144-112 112-112S0-61.856 0 0" style="fill-opacity:1;fill-rule:nonzero;stroke:none" transform="translate(234 122)" fill="#fff39d" data-original="#fff39d"></path><path d="M0 0s-14.642 11.093-32.231 5.809C-50.184.415-54.638-24.158-42.44-33.725c7.004-5.494 17.542-10.01 31.745-15.031 31.788-11.236 20.037-56.066-12.298-56.281-12.619-.084-18.518.717-29.603 7.968" style="stroke-width:20;stroke-linecap:round;stroke-linejoin:round;stroke-miterlimit:10;stroke-dasharray:none;stroke-opacity:1" transform="translate(144.283 171.4)" fill="none" stroke="#ff9b5d" stroke-width="20" stroke-linecap="round" stroke-linejoin="round" stroke-miterlimit="10" stroke-dasharray="none" stroke-opacity="" data-original="#ff5d7f"></path><path d="M0 0v-144" style="stroke-width:20;stroke-linecap:round;stroke-linejoin:round;stroke-miterlimit:10;stroke-dasharray:none;stroke-opacity:1" transform="translate(122 194)" fill="none" stroke="#ff9b5d" stroke-width="20" stroke-linecap="round" stroke-linejoin="round" stroke-miterlimit="10" stroke-dasharray="none" stroke-opacity="" data-original="#ff5d7f"></path><path d="M0 0c0 61.856-50.144 112-112 112S-224 61.856-224 0s50.144-112 112-112S0-61.856 0 0z" style="stroke-width:20;stroke-linecap:round;stroke-linejoin:round;stroke-miterlimit:10;stroke-dasharray:none;stroke-opacity:1" transform="translate(234 122)" fill="none" stroke="#ff9b5d" stroke-width="20" stroke-linecap="round" stroke-linejoin="round" stroke-miterlimit="10" stroke-dasharray="none" stroke-opacity="" data-original="#ff5d7f"></path><path d="M0 0c12.15 0 22 9.85 22 22v36c0 12.15-9.85 22-22 22s-22-9.85-22-22V22C-22 9.85-12.15 0 0 0" style="fill-opacity:1;fill-rule:nonzero;stroke:none" transform="translate(395.313 422)" fill="#ffffff" data-original="#ffffff"></path><path d="M0 0c-12.15 0-22 9.85-22 22v36c0 12.15 9.85 22 22 22s22-9.85 22-22V22C22 9.85 12.15 0 0 0" style="fill-opacity:1;fill-rule:nonzero;stroke:none" transform="translate(193.313 422)" fill="#ffffff" data-original="#ffffff"></path><path d="M0 0v0c12.15 0 22 9.85 22 22v36c0 12.15-9.85 22-22 22v0c-12.15 0-22-9.85-22-22V22C-22 9.85-12.15 0 0 0Z" style="stroke-width:20;stroke-linecap:round;stroke-linejoin:round;stroke-miterlimit:10;stroke-dasharray:none;stroke-opacity:1" transform="translate(395.313 422)" fill="none" stroke="#ff9b5d" stroke-width="20" stroke-linecap="round" stroke-linejoin="round" stroke-miterlimit="10" stroke-dasharray="none" stroke-opacity="" data-original="#ff5d7f"></path><path d="M0 0v0c-12.15 0-22 9.85-22 22v36c0 12.15 9.85 22 22 22v0c12.15 0 22-9.85 22-22V22C22 9.85 12.15 0 0 0Z" style="stroke-width:20;stroke-linecap:round;stroke-linejoin:round;stroke-miterlimit:10;stroke-dasharray:none;stroke-opacity:1" transform="translate(193.313 422)" fill="none" stroke="#ff9b5d" stroke-width="20" stroke-linecap="round" stroke-linejoin="round" stroke-miterlimit="10" stroke-dasharray="none" stroke-opacity="" data-original="#ff5d7f"></path><path d="M0 0c0-17.673 14.327-32 32-32 17.673 0 32 14.327 32 32 0 17.673-14.327 32-32 32C14.327 32 0 17.673 0 0" style="fill-opacity:1;fill-rule:nonzero;stroke:none" transform="translate(372.313 288)" fill="#ffc89f" data-original="#ff9fb3" class=""></path><path d="M0 0c0-17.673 14.327-32 32-32 17.673 0 32 14.327 32 32 0 17.673-14.327 32-32 32C14.327 32 0 17.673 0 0" style="fill-opacity:1;fill-rule:nonzero;stroke:none" transform="translate(262.313 288)" fill="#ffc89f" data-original="#ff9fb3" class=""></path><path d="M0 0c0-17.673 14.327-32 32-32 17.673 0 32 14.327 32 32 0 17.673-14.327 32-32 32C14.327 32 0 17.673 0 0" style="fill-opacity:1;fill-rule:nonzero;stroke:none" transform="translate(152.313 288)" fill="#ffc89f" data-original="#ff9fb3" class=""></path><path d="M0 0c0-17.673 14.327-32 32-32 17.673 0 32 14.327 32 32 0 17.673-14.327 32-32 32C14.327 32 0 17.673 0 0" style="fill-opacity:1;fill-rule:nonzero;stroke:none" transform="translate(372.313 178)" fill="#ffc89f" data-original="#ff9fb3" class=""></path><path d="M0 0c0-17.673 14.327-32 32-32 17.673 0 32 14.327 32 32 0 17.673-14.327 32-32 32C14.327 32 0 17.673 0 0" style="fill-opacity:1;fill-rule:nonzero;stroke:none" transform="translate(262.313 178)" fill="#ffc89f" data-original="#ff9fb3" class=""></path></g></g></svg>