<svg id="Capa_1" enable-background="new 0 0 512 512" height="512" viewBox="0 0 512 512" width="512" xmlns="http://www.w3.org/2000/svg"><g><g><path d="m116 439h240v63h-240z" fill="#ccffb3"/><path d="m116 313h240v63h-240z" fill="#ccffb3"/><path d="m156 376h240v63h-240z" fill="#fff"/><path d="m156 250h240v63h-240z" fill="#fff"/><circle cx="256" cy="130" fill="#fffabf" r="120"/><g fill="#9affbc"><path d="m50 30-40 60h20v120h40v-120h20z"/><path d="m462 30-40 60h20v120h40v-120h20z"/></g></g><g><g fill="#53d0a6"><path d="m266 210v-10h10c16.542 0 30-13.458 30-30v-20c0-16.542-13.458-30-30-30h-10v-40h10c5.514 0 10 4.486 10 10 0 5.522 4.477 10 10 10s10-4.478 10-10c0-16.542-13.458-30-30-30h-10v-10c0-5.522-4.477-10-10-10s-10 4.478-10 10v10h-10c-16.542 0-30 13.458-30 30v20c0 16.542 13.458 30 30 30h10v40h-10c-5.514 0-10-4.486-10-10 0-5.522-4.477-10-10-10s-10 4.478-10 10c0 16.542 13.458 30 30 30h10v10c0 5.522 4.477 10 10 10s10-4.477 10-10zm0-70h10c5.514 0 10 4.486 10 10v20c0 5.514-4.486 10-10 10h-10zm-20-20h-10c-5.514 0-10-4.486-10-10v-20c0-5.514 4.486-10 10-10h10z"/><path d="m116 429c-5.523 0-10 4.478-10 10v63c0 5.522 4.477 10 10 10h240c5.523 0 10-4.478 10-10v-53h30c5.523 0 10-4.478 10-10v-63c0-5.522-4.477-10-10-10h-30v-43h30c5.523 0 10-4.478 10-10v-63c0-5.522-4.477-10-10-10h-70.796c36.499-23.045 60.796-63.735 60.796-110 0-71.683-58.318-130-130-130s-130 58.317-130 130c0 46.265 24.297 86.955 60.796 110h-30.796c-5.523 0-10 4.478-10 10v53h-30c-5.523 0-10 4.478-10 10v63c0 5.522 4.477 10 10 10h30v43zm270-43v43c-8.672 0-204.463 0-220 0v-43h20v13c0 5.522 4.477 10 10 10s10-4.478 10-10v-13h20v13c0 5.522 4.477 10 10 10s10-4.478 10-10v-13h20v13c0 5.522 4.477 10 10 10s10-4.478 10-10v-13h20v13c0 5.522 4.477 10 10 10s10-4.478 10-10v-13h20v13c0 5.522 4.477 10 10 10s10-4.478 10-10v-13zm-240-256c0-60.654 49.346-110 110-110s110 49.346 110 110-49.346 110-110 110-110-49.346-110-110zm20 130h20v13c0 5.522 4.477 10 10 10s10-4.478 10-10v-13h20v13c0 5.522 4.477 10 10 10s10-4.478 10-10v-13h20v13c0 5.522 4.477 10 10 10s10-4.478 10-10v-13h20v13c0 5.522 4.477 10 10 10s10-4.478 10-10v-13h20v13c0 5.522 4.477 10 10 10s10-4.478 10-10v-13h20v43c-8.672 0-204.463 0-220 0zm-40 106v-43h20v13c0 5.522 4.477 10 10 10s10-4.478 10-10v-13h20v13c0 5.522 4.477 10 10 10s10-4.478 10-10v-13h20v13c0 5.522 4.477 10 10 10s10-4.478 10-10v-13h20v13c0 5.522 4.477 10 10 10s10-4.478 10-10v-13h20v13c0 5.522 4.477 10 10 10s10-4.478 10-10v-13h20v43c-15.678 0-211.452 0-220 0zm30 106c5.523 0 10-4.478 10-10v-13h20v13c0 5.522 4.477 10 10 10s10-4.478 10-10v-13h20v13c0 5.522 4.477 10 10 10s10-4.478 10-10v-13h20v13c0 5.522 4.477 10 10 10s10-4.478 10-10v-13h20v13c0 5.522 4.477 10 10 10s10-4.478 10-10v-13h20v43h-220v-43h20v13c0 5.523 4.477 10 10 10z"/><path d="m30 220h40c5.523 0 10-4.478 10-10v-110h10c3.688 0 7.077-2.03 8.817-5.281 1.74-3.252 1.549-7.197-.497-10.266l-40-60c-1.854-2.782-4.976-4.453-8.32-4.453s-6.466 1.671-8.32 4.453l-40 60c-2.046 3.068-2.237 7.014-.497 10.266 1.74 3.251 5.129 5.281 8.817 5.281h10v110c0 5.523 4.477 10 10 10zm20-171.973 21.315 31.973h-1.315c-5.523 0-10 4.478-10 10v110h-20v-110c0-5.522-4.477-10-10-10h-1.315z"/><path d="m442 220h40c5.523 0 10-4.478 10-10v-110h10c3.688 0 7.077-2.03 8.817-5.281 1.74-3.252 1.549-7.197-.497-10.266l-40-60c-1.854-2.782-4.976-4.453-8.32-4.453s-6.466 1.671-8.32 4.453l-40 60c-2.046 3.068-2.237 7.014-.497 10.266 1.74 3.251 5.129 5.281 8.817 5.281h10v110c0 5.523 4.477 10 10 10zm20-171.973 21.315 31.973h-1.315c-5.523 0-10 4.478-10 10v110h-20v-110c0-5.522-4.477-10-10-10h-1.315z"/></g></g></g></svg>