<?xml version="1.0" encoding="iso-8859-1"?>
<!-- Generator: Adobe Illustrator 19.0.0, SVG Export Plug-In . SVG Version: 6.00 Build 0)  -->
<svg xmlns="http://www.w3.org/2000/svg" xmlns:xlink="http://www.w3.org/1999/xlink" version="1.1" id="Layer_1" x="0px" y="0px" viewBox="0 0 490 490" style="enable-background:new 0 0 490 490;" xml:space="preserve" width="512" height="512">
<g>
	<g>
		<path style="fill:#F0CD00;" d="M490,245c0,135.31-109.69,245-245,245c-71.33,0-135.54-30.48-180.31-79.13    c-11.76-12.77-22.17-26.8-31.03-41.85C12.27,332.64,0,290.25,0,245C0,109.69,109.69,0,245,0c45.26,0,87.65,12.27,124.02,33.67    c15.05,8.85,29.07,19.26,41.84,31.03C459.51,109.45,490,173.67,490,245z"/>
		<path style="fill:#FFDE50;" d="M490,245c0,132.26-104.79,240.04-235.88,244.83C123.03,485.04,18.24,377.26,18.24,245    S123.03,4.96,254.12,0.17C385.21,4.96,490,112.74,490,245z"/>
		<path style="fill:#FFEA94;" d="M410.86,64.7L64.69,410.87c-11.76-12.77-22.17-26.8-31.03-41.85L369.02,33.67    C384.07,42.52,398.09,52.93,410.86,64.7z"/>
		<path style="fill:#FFEA94;" d="M473.1,155.43L155.42,473.11c-22.49-8.84-43.36-20.91-62.03-35.64L437.47,93.39    C452.2,112.06,464.27,132.93,473.1,155.43z"/>
		<path style="fill:#FAA300;" d="M435.38,245c0,105.14-85.24,190.38-190.38,190.38c-36.62,0-70.82-10.34-99.85-28.26    c-12.65-7.8-24.31-17.05-34.77-27.51c-7.69-7.68-14.73-16.03-21.02-24.94c-8.66-12.27-15.91-25.61-21.5-39.78    c-8.28-20.95-12.94-43.73-13.22-67.55c-0.02-0.78-0.02-1.56-0.02-2.34c0-105.14,85.23-190.38,190.38-190.38    c0.78,0,1.57,0,2.35,0.02c23.82,0.28,46.59,4.95,67.54,13.22c14.17,5.6,27.51,12.84,39.78,21.5c8.91,6.3,17.25,13.33,24.94,21.02    c10.46,10.45,19.71,22.12,27.51,34.77C425.04,174.18,435.38,208.38,435.38,245z"/>
		<path style="fill:#FFBD00;" d="M379.61,110.38L110.38,379.61c-7.69-7.68-14.73-16.03-21.02-24.94    c-8.66-12.27-15.91-25.61-21.5-39.78c-8.28-20.95-12.94-43.73-13.22-67.55c-0.02-0.78-0.02-1.56-0.02-2.34    c0-105.14,85.23-190.38,190.38-190.38c0.78,0,1.57,0,2.35,0.02c23.82,0.28,46.59,4.95,67.54,13.22    c14.17,5.6,27.51,12.84,39.78,21.5C363.58,95.66,371.92,102.69,379.61,110.38z"/>
		<path style="fill:#F68E00;" d="M435.375,245c0,105.14-85.24,190.38-190.38,190.38c-3.61,0-7.19-0.1-10.75-0.3    c100.14-5.57,179.62-88.55,179.62-190.08s-79.48-184.51-179.62-190.08c3.56-0.2,7.14-0.3,10.75-0.3    C350.135,54.62,435.375,139.86,435.375,245z"/>
	</g>
	<g>
		<path style="fill:#F68E00;" d="M226.774,323.176c-27.401,0-52.929-12.639-71.88-35.587    c-18.035-21.839-27.967-50.643-27.967-81.105c0-30.466,9.932-59.272,27.966-81.113c18.951-22.95,44.479-35.589,71.881-35.589    c30.615,0,59.094,16.004,78.133,43.909c6.225,9.125,3.875,21.568-5.25,27.793c-9.123,6.225-21.566,3.875-27.793-5.249    c-11.47-16.811-27.904-26.453-45.09-26.453c-33,0-59.847,34.408-59.847,76.702c0,42.289,26.847,76.692,59.847,76.692    c17.186,0,33.621-9.642,45.09-26.453c6.228-9.125,18.672-11.473,27.793-5.249c9.125,6.225,11.475,18.668,5.25,27.793    C285.868,307.172,257.389,323.176,226.774,323.176z"/>
		<path style="fill:#F68E00;" d="M291.063,390.22H154.334c-11.046,0-20-8.954-20-20s8.954-20,20-20h136.729c11.046,0,20,8.954,20,20    S302.109,390.22,291.063,390.22z"/>
	</g>
	<g>
		<path style="fill:#FFEA94;" d="M251.776,323.176c-27.401,0-52.929-12.639-71.88-35.587    c-18.035-21.839-27.967-50.643-27.967-81.105c0-30.466,9.932-59.272,27.966-81.113c18.951-22.95,44.479-35.589,71.881-35.589    c30.615,0,59.094,16.004,78.133,43.909c6.225,9.125,3.875,21.568-5.25,27.793c-9.123,6.225-21.566,3.875-27.793-5.249    c-11.47-16.811-27.904-26.453-45.09-26.453c-33,0-59.847,34.408-59.847,76.702c0,42.289,26.847,76.692,59.847,76.692    c17.186,0,33.621-9.642,45.09-26.453c6.228-9.125,18.672-11.473,27.793-5.249c9.125,6.225,11.475,18.668,5.25,27.793    C310.869,307.172,282.391,323.176,251.776,323.176z"/>
		<path style="fill:#FFEA94;" d="M316.065,390.22H179.335c-11.046,0-20-8.954-20-20s8.954-20,20-20h136.729c11.046,0,20,8.954,20,20    S327.111,390.22,316.065,390.22z"/>
	</g>
</g>















</svg>
