<svg id="Layer_1" enable-background="new 0 0 512 512" height="512" viewBox="0 0 512 512" width="512" xmlns="http://www.w3.org/2000/svg"><g><g><g clip-rule="evenodd" fill-rule="evenodd"><path d="m289.245 222.743 8.189 26.637c.44 1.777 1.498 3.409 3.113 4.545 3.554 2.498 8.461 1.641 10.959-1.913l16.279-23.17 27.935.443c1.796.109 3.639-.394 5.19-1.559 3.471-2.606 4.172-7.532 1.566-11.002l-17.011-22.649 9.15-26.711c.563-1.604.611-3.402.017-5.135-1.405-4.095-5.864-6.276-9.958-4.87l-26.758 9.166-22.649-17.011-.005.007c-1.341-1.009-3.014-1.597-4.822-1.572-4.335.06-7.801 3.623-7.741 7.958l.449 28.298-23.17 16.279.007.01c-1.374.964-2.451 2.373-2.986 4.099-1.285 4.143 1.032 8.543 5.175 9.828z" fill="#ffee80"/><path d="m311.506 252.011c-2.498 3.555-7.404 4.411-10.959 1.913-1.615-1.135-2.673-2.768-3.113-4.545l-8.189-26.637-27.072-8.323c-4.143-1.285-6.46-5.685-5.175-9.828.536-1.727 1.612-3.136 2.986-4.099l-.007-.01 23.17-16.279-.449-28.298c-.06-4.335 3.406-7.898 7.741-7.958 1.808-.025 3.481.563 4.822 1.572l.005-.007 22.649 17.011 26.758-9.166c4.094-1.405 8.553.776 9.958 4.87.594 1.733.547 3.531-.017 5.135l-9.15 26.711 17.011 22.649c2.606 3.47 1.905 8.396-1.566 11.002-1.552 1.165-3.394 1.668-5.19 1.559l-27.935-.443zm-154.475-56.011 158.963 158.963 137.749-137.749c-14.516-27.065-14.516-59.872 0-86.937l-72.026-72.026c-27.065 14.516-59.872 14.516-86.937 0z" fill="#fff"/><path d="m315.994 354.964-158.963-158.964-98.774 98.774c14.516 27.065 14.516 59.871 0 86.937l72.026 72.026c27.065-14.516 59.872-14.516 86.937 0z" fill="#ffe0e6"/><path d="m315.994 354.964-98.774 98.774c-27.065-14.516-59.871-14.516-86.937 0l-72.026-72.026c14.516-27.065 14.516-59.872 0-86.937l98.774-98.775 137.749-137.749c27.065 14.516 59.872 14.516 86.937 0l72.026 72.026c-14.516 27.065-14.516 59.872 0 86.937zm59.017-341.046c-20.304 20.304-53.22 20.304-73.524 0-5.23-5.23-13.71-5.23-18.941 0l-268.623 268.622c-5.23 5.23-5.23 13.711 0 18.941 20.304 20.304 20.305 53.22 0 73.524-5.23 5.23-5.23 13.71 0 18.941l104.126 104.126c5.23 5.23 13.711 5.23 18.941 0 20.305-20.305 53.22-20.304 73.524 0 5.23 5.23 13.71 5.23 18.941 0l268.623-268.623c5.23-5.23 5.23-13.711 0-18.941-20.304-20.304-20.305-53.22 0-73.524 5.23-5.23 5.23-13.71 0-18.941l-104.127-104.125c-5.23-5.231-13.71-5.231-18.94 0z" fill="#ffbecb"/></g><g><path d="m237.639 343.177c-2.56 0-5.118-.976-7.071-2.929l-58.82-58.82c-3.905-3.905-3.905-10.237 0-14.143 3.906-3.905 10.236-3.905 14.143 0l58.82 58.82c3.905 3.905 3.905 10.237 0 14.143-1.954 1.952-4.513 2.929-7.072 2.929z" fill="#ffbecb"/></g><g><path d="m209.354 371.461c-2.56 0-5.118-.976-7.071-2.929l-58.82-58.82c-3.905-3.905-3.905-10.237 0-14.143 3.906-3.905 10.236-3.905 14.143 0l58.82 58.82c3.905 3.905 3.905 10.237 0 14.143-1.953 1.953-4.512 2.929-7.072 2.929z" fill="#ffbecb"/></g><g><path d="m181.07 399.745c-2.56 0-5.118-.976-7.071-2.929l-58.82-58.82c-3.905-3.905-3.905-10.237 0-14.143 3.906-3.905 10.236-3.905 14.143 0l58.82 58.82c3.905 3.905 3.905 10.237 0 14.143-1.954 1.953-4.512 2.929-7.072 2.929z" fill="#ffbecb"/></g></g><g><path d="m505.147 144.055c4.419-4.418 6.853-10.292 6.853-16.542s-2.434-12.124-6.852-16.542l-104.126-104.125c-9.122-9.121-23.961-9.121-33.083 0-16.371 16.371-43.011 16.372-59.382 0 0 0 0 0-.001 0-9.119-9.12-23.961-9.12-33.082 0l-268.621 268.623c-4.419 4.418-6.853 10.292-6.853 16.541s2.434 12.124 6.852 16.542c7.932 7.931 12.3 18.476 12.3 29.69 0 11.215-4.368 21.76-12.301 29.692-9.118 9.121-9.118 23.961.001 33.083l104.126 104.125c4.419 4.419 10.293 6.853 16.542 6.853s12.123-2.433 16.542-6.852c16.371-16.372 43.011-16.371 59.382 0 4.418 4.418 10.292 6.852 16.541 6.852s12.123-2.433 16.542-6.851l268.623-268.624c9.12-9.121 9.12-23.961 0-33.082-16.373-16.372-16.374-43.011-.003-59.383zm-14.14 73.524c1.322 1.323 1.322 3.476 0 4.798l-268.622 268.624c-.865.865-1.875.994-2.4.994-.524 0-1.534-.129-2.398-.994-12.087-12.086-27.958-18.127-43.834-18.127-15.872 0-31.75 6.044-43.833 18.127-.864.865-1.874.994-2.399.994-.524 0-1.534-.129-2.398-.994l-104.129-104.126c-1.322-1.324-1.322-3.477 0-4.799 11.709-11.709 18.157-27.276 18.157-43.833s-6.448-32.124-18.158-43.833c-.864-.865-.993-1.875-.993-2.4s.129-1.534.994-2.399l268.623-268.622c1.322-1.321 3.475-1.322 4.799 0h-.001c12.087 12.086 27.958 18.128 43.834 18.127 15.872-.001 31.749-6.043 43.833-18.126 1.323-1.324 3.477-1.323 4.798 0l104.127 104.126c.864.865.993 1.874.993 2.399s-.129 1.534-.994 2.399c-24.169 24.169-24.169 63.496.001 87.665z" fill="#ff5d7d"/></g></g></svg>