<?xml version="1.0" encoding="UTF-8"?>
<svg id="Layer_2" data-name="Layer 2" xmlns="http://www.w3.org/2000/svg" viewBox="0 0 208.22 40.71">
  <defs>
    <style>
      .cls-1 {
        fill: #ff9a00;
      }

      .cls-2 {
        fill: #fe9900;
      }

      .cls-3 {
        fill: #407f74;
      }
    </style>
  </defs>
  <g>
    <path class="cls-3" d="m66.42,16.81c-.7,0-1.22-.37-1.56-1.11-.16-.35-.31-.56-.47-.63-.12-.05-.43-.08-.93-.08-.98,0-2.12.77-3.41,2.3-1.8,2.14-2.71,4.14-2.71,6.01,0,.85.29,1.58.86,2.19s1.25.91,2.05.91,1.56-.2,2.36-.61c.28-.15.88-.53,1.78-1.15.61-.41,1.07-.61,1.38-.61.47,0,.87.17,1.2.52.3.32.46.69.46,1.1,0,.46-.2.86-.61,1.21-2.15,1.81-4.34,2.72-6.56,2.72-1.76,0-3.24-.64-4.45-1.92-1.16-1.23-1.73-2.69-1.73-4.36,0-2.62,1.14-5.29,3.43-8.02,1.95-2.31,3.93-3.47,5.96-3.47.34,0,.65.01.93.04s.52.06.73.11c.34-.34.76-.5,1.24-.5.8,0,1.29.46,1.48,1.37.13.66.2,1.42.2,2.3,0,.39-.11.75-.34,1.07-.3.42-.73.63-1.29.63Z"/>
    <path class="cls-3" d="m82.65,28.85c-.92.41-2.35.77-4.28,1.09-1.77.3-3.21.45-4.35.45-1.91,0-2.87-.84-2.87-2.52,0,.13.08-1.11.23-3.71.2-3.39.3-7.16.3-11.32,0-.45.15-.82.46-1.14s.7-.47,1.17-.47.86.16,1.17.47.47.69.47,1.14c0,4.16-.11,8-.32,11.51-.07.62-.14,1.58-.22,2.87,1.85-.03,4.23-.48,7.12-1.36.18-.05.35-.08.52-.08.49,0,.89.18,1.2.54.27.32.41.68.41,1.08,0,.67-.34,1.16-1.02,1.46Z"/>
    <path class="cls-3" d="m100.42,29.64c-.62-.02-1.24-.75-1.86-2.18-.41-.92-.77-1.98-1.07-3.19-.58.09-1.52.17-2.84.26-1.23.09-2.18.19-2.84.3-.36.86-.98,2.15-1.88,3.88-.34.56-.82.84-1.43.84-.43,0-.82-.15-1.16-.44s-.52-.67-.52-1.12c0-.4.57-1.75,1.71-4.05-.11-.24-.16-.47-.14-.68.03-.38.41-.67,1.14-.88,1.11-1.92,2.34-3.91,3.7-5.98,1.95-2.96,3.16-4.44,3.61-4.44.86,0,1.43.52,1.72,1.56.16.84.4,2.09.74,3.76.48,2.25,1.06,4.82,1.75,7.72.05.22.25.73.6,1.55.28.67.42,1.18.42,1.51,0,.45-.17.83-.51,1.14s-.72.45-1.15.43Zm-4.37-12.02c-.61,1.05-1.45,2.47-2.52,4.28.35-.08.9-.14,1.64-.19.88-.05,1.43-.1,1.65-.13-.19-1.02-.45-2.34-.77-3.96Z"/>
    <path class="cls-3" d="m112.13,30.01c-1.98,0-3.55-.44-4.69-1.32-.96-.73-1.44-1.58-1.44-2.54,0-.49.15-.9.45-1.22s.71-.49,1.23-.49c.7,0,1.22.36,1.55,1.08.45.96,1.45,1.44,3.02,1.44,1.34,0,2.64-.29,3.9-.88,1.3-.6,1.96-1.26,1.96-1.98,0-.98-.41-1.63-1.22-1.95-.58-.23-1.74-.36-3.48-.4-1.35-.03-2.56-.29-3.63-.76-1.45-.65-2.16-1.58-2.13-2.79.02-1.52.84-2.92,2.44-4.19s3.37-1.9,5.3-1.9c.77,0,1.71.18,2.84.53,1.4.44,2.1.94,2.1,1.51,0,.41-.14.77-.42,1.08-.31.35-.71.53-1.21.53-.37,0-.92-.08-1.65-.23s-1.28-.23-1.66-.23c-1.01,0-1.96.25-2.87.73-.94.48-1.41,1.01-1.41,1.58,0,.3.14.54.43.73s.71.33,1.28.4c1,.05,2,.11,2.99.16,1.73.13,3.11.62,4.11,1.46,1.11.94,1.66,2.23,1.66,3.89,0,2.02-1.15,3.54-3.45,4.58-1.75.79-3.75,1.18-6,1.18Z"/>
    <path class="cls-3" d="m130.88,30.01c-1.98,0-3.55-.44-4.69-1.32-.96-.73-1.44-1.58-1.44-2.54,0-.49.15-.9.45-1.22s.71-.49,1.23-.49c.7,0,1.22.36,1.55,1.08.45.96,1.45,1.44,3.02,1.44,1.34,0,2.64-.29,3.9-.88,1.3-.6,1.96-1.26,1.96-1.98,0-.98-.41-1.63-1.22-1.95-.58-.23-1.74-.36-3.48-.4-1.35-.03-2.56-.29-3.63-.76-1.45-.65-2.16-1.58-2.13-2.79.02-1.52.84-2.92,2.44-4.19s3.37-1.9,5.3-1.9c.77,0,1.71.18,2.84.53,1.4.44,2.1.94,2.1,1.51,0,.41-.14.77-.42,1.08-.31.35-.71.53-1.21.53-.37,0-.92-.08-1.65-.23s-1.28-.23-1.66-.23c-1.01,0-1.96.25-2.87.73-.94.48-1.41,1.01-1.41,1.58,0,.3.14.54.43.73s.71.33,1.28.4c1,.05,2,.11,2.99.16,1.73.13,3.11.62,4.11,1.46,1.11.94,1.66,2.23,1.66,3.89,0,2.02-1.15,3.54-3.45,4.58-1.75.79-3.75,1.18-6,1.18Z"/>
    <path class="cls-1" d="m164.5,11.72c.38,0,.75.15,1.1.44.35.29.52.69.52,1.19,0,.15-.02.32-.07.5l-4.93,14.5c-.1.3-.28.53-.54.69-.26.16-.53.25-.81.26-.28,0-.56-.08-.84-.25-.27-.17-.49-.41-.64-.73l-3.7-8.4.23.15-3.65,8.25c-.15.32-.36.56-.64.73-.27.17-.55.25-.84.25-.27-.02-.53-.1-.8-.26-.27-.16-.45-.39-.55-.69l-4.92-14.5c-.05-.18-.08-.35-.08-.5,0-.5.18-.9.54-1.19.36-.29.73-.44,1.11-.44.32,0,.61.08.89.25.27.17.46.41.56.73l3.98,12.05-.55-.03,3.55-8.52c.13-.3.32-.54.57-.71s.53-.25.85-.24c.32-.02.6.06.85.24s.43.41.55.71l3.25,8.15-.4.25,3.93-11.9c.1-.32.29-.56.57-.73.28-.17.58-.25.9-.25Z"/>
    <path class="cls-1" d="m173.72,27.77c0,.43-.16.8-.48,1.09-.32.29-.68.44-1.1.44-.47,0-.84-.15-1.12-.44-.28-.29-.42-.65-.42-1.09v-14.45c0-.43.15-.8.45-1.09.3-.29.68-.44,1.15-.44.4,0,.75.15,1.06.44.31.29.46.65.46,1.09v14.45Z"/>
    <path class="cls-1" d="m185.3,29.54c-1.17,0-2.22-.15-3.15-.44-.93-.29-1.83-.8-2.68-1.54-.22-.18-.38-.39-.5-.62-.12-.23-.17-.47-.17-.7,0-.38.14-.72.41-1.01.27-.29.62-.44,1.04-.44.32,0,.6.1.85.3.63.52,1.26.91,1.89,1.18s1.4.4,2.31.4c.62,0,1.18-.1,1.7-.29.52-.19.93-.45,1.25-.77.32-.33.47-.7.47-1.11,0-.5-.15-.93-.45-1.28-.3-.35-.76-.65-1.38-.89-.62-.24-1.4-.43-2.35-.56-.9-.13-1.69-.34-2.38-.61-.68-.27-1.25-.62-1.71-1.05-.46-.42-.8-.92-1.04-1.5s-.35-1.22-.35-1.94c0-1.08.28-2.01.84-2.77s1.31-1.35,2.26-1.75,2-.6,3.15-.6c1.08,0,2.09.16,3.01.49.92.33,1.68.74,2.26,1.24.48.38.73.82.73,1.32,0,.37-.14.7-.42,1-.28.3-.62.45-1,.45-.25,0-.48-.08-.68-.23-.27-.23-.62-.45-1.07-.66-.45-.21-.93-.38-1.43-.52-.5-.14-.97-.21-1.4-.21-.72,0-1.32.09-1.81.27-.49.18-.86.43-1.11.75-.25.32-.38.68-.38,1.1,0,.5.15.91.44,1.24.29.33.71.58,1.26.78.55.19,1.21.36,1.98.51,1,.18,1.88.4,2.64.65.76.25,1.39.57,1.89.96s.88.88,1.12,1.47c.25.59.38,1.31.38,2.16,0,1.08-.3,2.02-.9,2.8s-1.39,1.38-2.36,1.8-2.03.62-3.16.62Z"/>
    <path class="cls-1" d="m198.32,11.79h8.38c.43,0,.8.14,1.09.41s.44.63.44,1.06-.15.75-.44,1.01c-.29.26-.65.39-1.09.39h-7l.23-.42v4.88l-.2-.2h5.85c.43,0,.8.14,1.09.41s.44.63.44,1.06-.15.75-.44,1.01c-.29.26-.65.39-1.09.39h-5.77l.12-.2v5.05l-.2-.23h6.98c.43,0,.8.15,1.09.44.29.29.44.63.44,1.01,0,.42-.15.76-.44,1.02s-.65.4-1.09.4h-8.38c-.43,0-.8-.15-1.09-.44-.29-.29-.44-.65-.44-1.09v-14.45c0-.43.15-.8.44-1.09s.65-.44,1.09-.44Z"/>
  </g>
  <path class="cls-2" d="m34.67,1.45H11.63C5.22,1.45,0,6.67,0,13.08v8.04c0,6.41,5.22,11.63,11.63,11.63h2.06l-1.27,5.36c-.21.89.34,1.78,1.23,1.99.89.21,1.78-.34,1.99-1.23l1.37-5.79c.03-.11.04-.22.04-.34h12.2c0,.11.02.22.04.34l1.37,5.79c.21.89,1.1,1.44,1.99,1.23.89-.21,1.44-1.1,1.23-1.99l-1.27-5.36h2.06c6.41,0,11.63-5.22,11.63-11.63v-8.04c0-6.41-5.22-11.63-11.63-11.63Zm8.33,19.67c0,4.59-3.74,8.33-8.33,8.33H11.63c-4.59,0-8.33-3.74-8.33-8.33v-8.04c0-4.59,3.74-8.33,8.33-8.33h23.04c4.59,0,8.33,3.74,8.33,8.33v8.04Z"/>
</svg>