<svg id="Capa_1" enable-background="new 0 0 512 512" height="512" viewBox="0 0 512 512" width="512" xmlns="http://www.w3.org/2000/svg"><g><path d="m502 220.261-184.702-184.701c-33.854-33.854-88.742-33.854-122.596 0l-184.702 184.701v241.57c0 22.091 17.909 40 40 40h412c22.091 0 40-17.909 40-40z" fill="#e1f9e7"/><path d="m50 501.831h412c21.923 0 39.718-17.64 39.987-39.499l-210.635-210.635c-19.562-19.562-51.279-19.562-70.841 0l-210.502 210.502c.199 21.921 18.023 39.632 39.991 39.632z" fill="#a4eeb6"/><path id="XMLID_2545_" d="m66.127 63.831h380v200h-380z" fill="#a4eeb6"/><path d="m406.127 205.404v-83.147c0-1.269-.937-2.337-2.194-2.509-3.353-.46-6.59-1.978-9.168-4.556s-4.097-5.814-4.556-9.168c-.172-1.257-1.24-2.194-2.509-2.194h-263.146c-1.269 0-2.337.937-2.509 2.194-.46 3.353-1.978 6.589-4.556 9.168-2.578 2.578-5.814 4.097-9.168 4.556-1.257.172-2.194 1.24-2.194 2.509v83.147c0 1.269.937 2.337 2.194 2.509 3.353.46 6.59 1.978 9.168 4.556s4.097 5.814 4.556 9.168c.172 1.257 1.24 2.194 2.509 2.194h263.146c1.269 0 2.337-.937 2.509-2.194.46-3.353 1.978-6.589 4.556-9.168 2.578-2.578 5.814-4.097 9.168-4.556 1.257-.172 2.194-1.24 2.194-2.509z" fill="#fff"/><circle id="XMLID_2509_" cx="340" cy="163.831" fill="#a4eeb6" r="16.167"/><circle id="XMLID_230_" cx="172.254" cy="163.831" fill="#a4eeb6" r="16.167"/><circle id="XMLID_1718_" cx="256.127" cy="163.831" fill="#ffd968" r="29.797"/><path d="m93.57 303.831h324.86l27.697-27.697v-12.303h-380v12.557z" fill="#e1f9e7"/><path d="m418.43 303.831h-324.86l40 40h244.86z" fill="#a4eeb6"/><path d="m173.57 383.831 21.132 21.132c8.354 8.354 17.991 14.637 28.274 18.868h66.047c10.283-4.231 19.921-10.514 28.274-18.868l21.132-21.132z" fill="#a4eeb6"/><path d="m378.43 343.831h-244.86l40 40h164.86z" fill="#e1f9e7"/><path d="m509.071 213.19-52.944-52.944v-96.415c0-5.523-4.477-10-10-10h-96.415l-25.343-25.343c-18.262-18.261-42.542-28.319-68.369-28.319s-50.107 10.058-68.369 28.319l-25.343 25.343h-96.161c-5.523 0-10 4.477-10 10v96.161l-53.198 53.198c-1.875 1.875-2.929 4.419-2.929 7.071v241.57c0 27.57 22.43 50 50 50h412c27.57 0 50-22.43 50-50v-241.57c0-2.652-1.054-5.196-2.929-7.071zm-21.213 7.071-31.731 31.731v-63.461zm-330.146 133.57h196.575l-20 20h-156.575zm156.576 40-4.061 4.061c-14.484 14.485-33.743 22.462-54.227 22.462s-39.743-7.977-54.227-22.462l-4.061-4.061zm60-60h-236.576l-20-20h276.575zm40-40h-316.576l-20-20h356.576zm-212.515-251.2c29.9-29.901 78.554-29.901 108.454 0l11.2 11.2h-130.854zm-125.646 31.2h360v180h-360zm-20 178.415-31.985-31.985 31.985-31.984zm405.873 239.585h-412c-16.542 0-30-13.458-30-30v-217.428l167.63 167.631c18.262 18.262 42.543 28.319 68.37 28.319s50.107-10.058 68.37-28.319l167.63-167.63v217.427c0 16.542-13.458 30-30 30z" fill="#68e386"/></g></svg>